# xmcd
#
# Track frame offsets:
#	150
#	15832
#	26933
#	43849
#	58840
#	72540
#	83550
#	98271
#	108179
#	120877
#	135636
#	149203
#	162261
#	177915
#
# Disc length: 2608 seconds
#
# Revision: 0
# Processed by: cddbd v1.5.2PL0 Copyright (c) Steve Scherf et al.
# Submitted via: EasyCDDAExtractor 16.0.8.2
#
DISCID=b70a2e0e
DTITLE=Συλλογικός δίσκος - Αφιέρωμα στον Μ. Βαμβακάρη 2
DYEAR=2003
DGENRE=Ρεμπέτικη
TTITLE0=Νταλάρας Γιώργος - Κάθε βράδυ θα σε περιμένω
TTITLE1=Χριστοπούλου Χρυσούλα-Νταλάρας Γιώργος - Να πεθάνεις
TTITLE2=Νταλάρας Γιώργος - Άτακτη
TTITLE3=Νταλάρας Γιώργος-Βαμβακάρης Σ. κ Δ. - Κάφ' τονε Σταύρο, κάφ' τονε
TTITLE4=Νταλάρας Γιώργος-Βαμβακάρης Σ. κ Δ. - Εφουμέρναμε ένα βράδυ
TTITLE5=Νταλάρας Γιώργος-Βαμβακάρης Σ. κ Δ. - Μπουζούκι μου διπλόχορδο
TTITLE6=Νταλάρας Γιώργος - Ο καλόγηρος
TTITLE7=Νταλάρας Γιώργος-Βαμβακάρης Σ. κ Δ. - Αλεξανδριανή
TTITLE8=Νταλάρας Γιώργος - Ρίξε τσιγγάνα τα χαρτιά
TTITLE9=Νταλάρας Γιώργος-Βαμβακάρης Σ. κ Δ. - Το μπουζούκι στο Παρίσι
TTITLE10=Νταλάρας Γιώργος-Βαμβακάρης Σ. κ Δ. - Τα καραβοτσακίσματα
TTITLE11=Νταλάρας Γιώργος-Βαμβακάρης Σ. κ Δ. - Όσοι έχουνε πολλά λεφτά
TTITLE12=Βαμβακάρης Στέλιος - Αν μ' αξιώσει ο Θεός
TTITLE13=Νταλάρας Γιώργος - Αντιλαλούν οι φυλακές
EXTD=
EXTT0=
EXTT1=
EXTT2=
EXTT3=
EXTT4=
EXTT5=
EXTT6=
EXTT7=
EXTT8=
EXTT9=
EXTT10=
EXTT11=
EXTT12=
EXTT13=
PLAYORDER=
